<?xml version="1.0" encoding="UTF-8"?>
<svg id="WORDMARK" xmlns="http://www.w3.org/2000/svg" viewBox="0 0 812.01 118.5">
  <defs>
    <style>
      .cls-1 {
        fill: #4d4d4f;
      }

      .cls-1, .cls-2, .cls-3, .cls-4, .cls-5 {
        stroke-width: 0px;
      }

      .cls-2 {
        fill: #e6e6e6;
      }

      .cls-3 {
        fill: #00677f;
      }

      .cls-4 {
        fill: #444;
      }

      .cls-5 {
        fill: #00a695;
      }
    </style>
  </defs>
  <path class="cls-5" d="m543.72,7.22c0-4.21,2.92-7.13,7.07-7.13s7.11,2.92,7.11,7.13-2.92,7.05-7.11,7.05-7.07-2.88-7.07-7.05Zm13.12,0c0-3.64-2.44-6.16-6.05-6.16s-6.01,2.43-6.01,6.16,2.48,6.07,6.01,6.07,6.05-2.51,6.05-6.07Zm-2.8,4.33c-2.03,0-1.58-3.28-4.02-3.28h-.85v3.24h-1.22V2.85h3.05c1.62,0,2.68,1.01,2.68,2.55,0,1.94-1.75,2.43-1.95,2.43,1.58.57,1.38,2.67,2.56,2.67h.16l.08,1.01s-.2.04-.49.04Zm-1.5-6.16c0-.89-.69-1.5-1.71-1.5h-1.67v3.28h1.62c.97,0,1.75-.81,1.75-1.78Z"/>
  <g>
    <rect class="cls-5" x="437.02" y="85.04" width="14.17" height="14.17"/>
    <path class="cls-5" d="m522.06,14.17v42.52c0,15.65-12.69,28.35-28.34,28.35h-28.35v-28.35c0-15.66,12.69-28.35,28.35-28.35h14.17l14.17-14.17h-28.35c-23.48,0-42.52,19.04-42.52,42.52v28.35l14.17,14.17h28.37c23.46-.02,42.48-19.03,42.49-42.49h0V0l-14.17,14.17Z"/>
    <path class="cls-4" d="m0,18.88h49.6v14.17H14.17v28.35l9.45-9.45h16.53v14.17H14.17v33.07H0S0,18.88,0,18.88Z"/>
    <path class="cls-4" d="m76.77,37.9c17.95,0,31.89,13.7,31.89,31.53s-13.93,31.53-31.89,31.53-31.89-13.7-31.89-31.53,13.82-31.53,31.89-31.53Zm0,50.2c10.39,0,17.83-8.15,17.83-18.66s-7.44-18.66-17.83-18.66-17.83,8.15-17.83,18.66,7.32,18.66,17.83,18.66Z"/>
    <path class="cls-4" d="m177.16,99.4c-1.77.64-4.36.86-6.73.86-2.83,0-6.14-.47-8.74-2.36-1.65-1.3-3.43-3.19-4.25-6.26-2.72,4.72-8.39,8.74-18.07,8.74-14.29,0-23.62-9.21-23.62-23.86v-36.38h14.17v34.37c0,8.03,5.2,13.23,12.99,13.23s12.99-5.67,12.99-13.82v-33.78h14.17s0,40.98,0,40.98c0,4.96,1.18,6.85,4.37,6.85.75,0,1.89-.1,2.72-.2"/>
    <path class="cls-4" d="m219.68,52.42c-1.53-.29-3.33-.47-5.31-.47-9.8,0-15.95,6.14-15.95,15.94v31.3s-14.17,0-14.17,0v-59.05h14.17v8.39c2.83-6.14,9.09-10.04,17.6-10.04,1.2,0,2.75.14,3.66.26"/>
    <path class="cls-4" d="m226.76,18.88h14.17v60.83c0,5.79,1.89,8.27,7.09,8.27,1.3,0,2.95-.12,4.25-.47,0,0,.29-.07.47-.16v12.64c-.15.06-.47.15-.47.15-1.65.47-4.25.71-6.73.71-7.68,0-18.78-2.13-18.78-19.25V18.88Z"/>
    <path class="cls-4" d="m252.75,69.43c0-19.13,13.35-31.42,31.18-31.42s30.23,13.35,30.23,30c0,0,0,2.6-.24,4.96h-47.12c.47,9.45,7.44,15.59,17.95,15.59,7.2,0,12.34-2.3,16.82-6.79l8.39,8.39c-7.58,7.96-16.71,10.44-25.69,10.44-18.66,0-31.53-12.05-31.53-30.71v-.47Zm47-6.38c0-7.09-7.56-12.99-15.82-12.99-8.86,0-16.18,5.79-16.77,12.99h32.6Z"/>
    <path class="cls-4" d="m348.65,38.37c10.04,0,17.71,4.49,19.84,9.92v-8.15h14.17v41.1c0,4.96,1.18,6.97,4.37,6.97.83,0,2.13-.12,2.95-.24v11.46c-1.77.71-4.49.94-6.97.94s-5.67-.35-8.27-1.89c-1.89-1.3-4.02-3.42-4.84-7.2-3.43,5.08-10.51,9.33-21.26,9.33-16.77,0-29.76-13.46-29.76-31.18s12.99-31.06,29.76-31.06Zm1.89,49.25c10.28,0,19.01-7.8,19.01-18.19s-8.74-18.19-19.01-18.19-17.6,7.8-17.6,18.19,7.56,18.19,17.6,18.19Z"/>
    <path class="cls-4" d="m399.2,51.95h-9.45v-11.81h9.45v-1.06c0-9.33,2.12-14.05,6.49-17.6,4.49-3.66,10.16-3.9,14.76-3.9,2.13,0,4.84.24,6.14.47,0,0,.63.11.95.26v12.38c-.78-.43-.95-.47-.95-.47-1.65-.59-3.66-.59-5.43-.59-5.31,0-7.8,2.24-7.8,8.39v2.13h11.81v11.81h-11.81v47.24h-14.17v-47.24Z"/>
  </g>
  <path class="cls-2" d="m593.49,104.21l-14.17,14.28V0h14.17v104.21Z"/>
  <g>
    <path class="cls-1" d="m629.51,22.45l-3.85.59c0-2.02-1.27-4.79-4.7-4.79s-5.9,2.74-5.9,7.41c0,5.29,3.13,7.41,6.49,7.41,2.77,0,4.7-1.79,5.68-3.1l2.45,2.51c-.88,1.24-3.43,4.18-8.22,4.18-6.3,0-10.57-4.14-10.57-10.99s4.18-10.99,10.01-10.99c6.33,0,8.58,4.53,8.61,7.8Z"/>
    <path class="cls-1" d="m637.12,18.28v5.48h8.65v3.26h-8.65v6h9.88v3.39h-14V14.89h14v3.39h-9.88Z"/>
    <path class="cls-1" d="m665.11,33.03v3.39h-14.16V14.89h4.11v18.14h10.05Z"/>
    <path class="cls-1" d="m672.02,18.28v5.48h8.65v3.26h-8.65v6h9.88v3.39h-14V14.89h14v3.39h-9.88Z"/>
    <path class="cls-1" d="m702.23,30.58c0,3.72-2.64,5.84-7.37,5.84h-9V14.89h8.12c4.57,0,7.31,2.09,7.31,5.81,0,3.2-2.22,4.21-3.46,4.4v.1c1.47.23,4.4,1.66,4.4,5.38Zm-9.04-12.49h-3.26v5.87h3.56c2.41,0,3.69-1.21,3.69-2.9,0-1.92-1.27-2.97-3.98-2.97Zm4.89,12.04c0-2.22-1.79-3.29-4.21-3.29h-3.95v6.39h4.24c2.28,0,3.91-.98,3.91-3.1Z"/>
    <path class="cls-1" d="m723.14,36.42s-.85.23-2.19.23c-6.39,0-4.6-7.89-9.69-7.89h-1.24v7.67h-4.11V14.89h7.08c5.42,0,8.38,2.15,8.38,7.08,0,3-1.7,5.06-4.5,6.07,2.48,1.24,2.51,5.32,5.35,5.32.36,0,.65-.07.65-.07l.26,3.13Zm-10.7-10.63c2.84,0,4.86-1.34,4.86-3.79s-1.63-3.82-4.54-3.82h-2.74v7.6h2.41Z"/>
    <path class="cls-1" d="m737.92,31.59h-8.22l-1.63,4.83h-4.24l7.8-21.53h4.37l7.73,21.53h-4.18l-1.63-4.83Zm-1.08-3.17l-2.35-6.85c-.23-.65-.46-1.57-.65-2.38h-.1c-.16.82-.42,1.73-.65,2.42l-2.32,6.82h6.07Z"/>
    <path class="cls-1" d="m748.95,18.28h-6.66v-3.39h17.45v3.39h-6.69v18.14h-4.11v-18.14Z"/>
    <path class="cls-1" d="m762.55,14.89h4.08v21.53h-4.08V14.89Z"/>
    <path class="cls-1" d="m789.37,36.42h-4.04l-7.44-11.35c-.88-1.34-2.02-3.29-2.45-4.01l-.16.1c.1.46.16,2.15.16,3.88l.06,11.39h-4.04V14.89h3.88l7.67,11.74c1.17,1.83,2.05,3.43,2.35,4.05l.2-.1c-.07-.55-.16-2.19-.16-3.98l-.03-11.71h4.01v21.53Z"/>
    <path class="cls-1" d="m812.01,36.42h-2.71c-.07-.26-.23-1.21-.36-2.61-1.24,1.86-3.33,2.84-6.17,2.84-5.77,0-9.62-4.34-9.62-10.99s4.18-10.99,9.98-10.99c6.33,0,8.58,4.34,8.58,7.47l-3.78.59c0-2.02-1.3-4.47-4.73-4.47s-5.9,2.71-5.9,7.41,2.35,7.54,6.17,7.54c3.39,0,5.12-1.92,5.12-4.54h-6.04v-2.77h9.46v10.54Z"/>
    <path class="cls-3" d="m616.11,51.38h-6.23v-4.96h18.56v4.96h-6.23v16.57h-6.1v-16.57Z"/>
    <path class="cls-3" d="m659.66,46.42l-5.87,21.53h-7.01l-1.92-8.29c-.49-2.09-.49-3.17-.62-4.11h-.13c-.13.95-.2,2.05-.65,4.11l-1.89,8.29h-7.18l-5.71-21.53h6.23l2.71,13.47c.23,1.08.46,2.25.52,2.64h.13c.07-.39.29-1.57.52-2.61l2.81-13.51h5.19l2.77,13.51c.23,1.04.46,2.19.52,2.61h.13c.07-.42.29-1.57.52-2.64l2.71-13.47h6.23Z"/>
    <path class="cls-3" d="m667.42,51.38v3.52h7.57v4.6h-7.57v3.49h9v4.96h-15.1v-21.53h15.1v4.96h-9Z"/>
    <path class="cls-3" d="m699.03,67.95h-5.45l-5.51-7.63c-.88-1.24-1.86-2.71-2.68-4.01l-.23.1c.16.69.16,2.15.16,3.92v7.63h-5.84v-21.53h4.83l6.17,8.45c.91,1.27,2.25,3.46,2.67,4.24l.2-.1c-.16-.69-.16-2.38-.16-4.14v-8.45h5.84v21.53Z"/>
    <path class="cls-3" d="m707.42,51.38h-6.23v-4.96h18.56v4.96h-6.23v16.57h-6.1v-16.57Z"/>
    <path class="cls-3" d="m733.09,60.19v7.76h-6.1v-7.73l-7.14-13.8h6.59l2.64,6.1c.29.68.82,1.99.98,2.64h.13c.16-.65.65-1.96.95-2.64l2.61-6.1h6.46l-7.11,13.77Z"/>
    <path class="cls-3" d="m622.57,91.73v7.76h-6.1v-7.73l-7.14-13.8h6.59l2.64,6.1c.29.68.82,1.99.98,2.64h.13c.16-.65.65-1.96.95-2.64l2.61-6.1h6.46l-7.11,13.77Z"/>
    <path class="cls-3" d="m637.41,82.92v3.52h7.57v4.6h-7.57v3.49h9v4.96h-15.1v-21.53h15.1v4.96h-9Z"/>
    <path class="cls-3" d="m661.39,95.54h-6.62l-1.11,3.95h-6.23l7.24-21.53h6.79l7.18,21.53h-6.17l-1.08-3.95Zm-1.21-4.37l-1.44-5.19c-.2-.72-.49-1.86-.59-2.61h-.13c-.1.75-.42,1.89-.62,2.64l-1.43,5.15h4.21Z"/>
    <path class="cls-3" d="m689.05,99.46s-.88.29-2.9.29c-7.05,0-5.25-6.82-9.43-6.82h-.36v6.56h-6.1v-21.53h8.06c6.13,0,9.23,2.41,9.23,7.8,0,3-1.3,4.99-3.88,6.1,1.92.65,1.96,3,4.37,3,.36,0,.69-.06.69-.06l.33,4.67Zm-11.52-10.64c2.51,0,4.08-1.08,4.08-3,0-2.09-1.4-3.2-3.69-3.2h-1.57v6.2h1.17Z"/>
    <path class="cls-3" d="m699.56,82.59c-1.5,0-2.32.65-2.32,1.6,0,3.36,10.67,1.21,10.67,9.3,0,3.29-2.45,6.26-8.65,6.26-5.02,0-8.22-2.41-9.36-3.39l3.49-4.24c1.08,1.01,3.69,2.87,6.13,2.87,1.7,0,2.28-.46,2.28-1.3,0-3.03-10.64-1.21-10.64-9.04,0-3.72,3.17-6.95,8.19-6.95,5.64,0,7.86,2.97,8.38,6l-5.35,1.31c0-1.17-1.11-2.41-2.84-2.41Z"/>
  </g>
</svg>